<?xml version="1.0" standalone="no"?>
<!DOCTYPE svg PUBLIC "-//W3C//DTD SVG 20010904//EN"
 "http://www.w3.org/TR/2001/REC-SVG-20010904/DTD/svg10.dtd">
<svg version="1.0" xmlns="http://www.w3.org/2000/svg"
 width="256.000000pt" height="256.000000pt" viewBox="0 0 256.000000 256.000000"
 preserveAspectRatio="xMidYMid meet">

<g transform="translate(0.000000,256.000000) scale(0.100000,-0.100000)"
fill="#000000" stroke="none">
<path d="M70 1840 l0 -120 235 0 235 0 0 -500 0 -500 170 0 170 0 2 498 3 497
218 3 217 2 60 120 60 120 -685 0 -685 0 0 -120z"/>
<path d="M1555 1950 c11 -5 27 -9 35 -9 9 0 8 4 -5 9 -11 5 -27 9 -35 9 -9 0
-8 -4 5 -9z"/>
<path d="M1522 1915 c-17 -37 -14 -45 4 -12 9 16 14 31 11 33 -2 2 -9 -7 -15
-21z"/>
<path d="M1670 1903 c14 -10 45 -36 70 -58 l45 -39 -37 40 c-21 22 -52 47 -70
57 -32 17 -32 17 -8 0z"/>
<path d="M1497 1858 c-3 -7 -12 -30 -21 -50 -9 -21 -14 -38 -12 -38 7 0 47 92
42 97 -2 2 -6 -2 -9 -9z"/>
<path d="M1805 1763 c15 -24 30 -43 32 -43 7 0 -31 61 -46 73 -8 7 -2 -7 14
-30z"/>
<path d="M1446 1745 c-9 -26 -7 -32 5 -12 6 10 9 21 6 23 -2 3 -7 -2 -11 -11z"/>
<path d="M1860 1670 c11 -22 23 -40 25 -40 3 0 -4 18 -15 40 -11 22 -23 40
-25 40 -3 0 4 -18 15 -40z"/>
<path d="M1412 1665 c-17 -37 -14 -45 4 -12 9 16 14 31 11 33 -2 2 -9 -7 -15
-21z"/>
<path d="M1382 1595 c-17 -37 -14 -45 4 -12 9 16 14 31 11 33 -2 2 -9 -7 -15
-21z"/>
<path d="M1900 1597 c0 -12 50 -110 68 -129 19 -22 33 -23 58 -2 18 14 18 15
-4 4 -35 -17 -48 -7 -86 67 -19 37 -35 64 -36 60z"/>
<path d="M1342 1505 c-17 -37 -14 -45 4 -12 9 16 14 31 11 33 -2 2 -9 -7 -15
-21z"/>
<path d="M2193 1523 c15 -2 37 -2 50 0 12 2 0 4 -28 4 -27 0 -38 -2 -22 -4z"/>
<path d="M2128 1513 c6 -2 18 -2 25 0 6 3 1 5 -13 5 -14 0 -19 -2 -12 -5z"/>
<path d="M2335 1500 c39 -10 78 -21 88 -25 9 -4 17 -5 17 -1 0 8 -128 46 -154
45 -11 0 11 -8 49 -19z"/>
<path d="M2080 1500 c-8 -5 -10 -10 -5 -10 6 0 17 5 25 10 8 5 11 10 5 10 -5
0 -17 -5 -25 -10z"/>
<path d="M2450 1460 c0 -5 10 -10 23 -10 18 0 19 2 7 10 -19 13 -30 13 -30 0z"/>
<path d="M2418 1443 c7 -3 16 -2 19 1 4 3 -2 6 -13 5 -11 0 -14 -3 -6 -6z"/>
<path d="M1306 1425 c-9 -26 -7 -32 5 -12 6 10 9 21 6 23 -2 3 -7 -2 -11 -11z"/>
<path d="M2360 1430 c-18 -12 -2 -12 25 0 13 6 15 9 5 9 -8 0 -22 -4 -30 -9z"/>
<path d="M1590 1413 c29 -3 45 -11 56 -28 14 -21 14 -26 -1 -54 -8 -17 -13
-31 -11 -31 3 0 13 14 22 31 15 30 15 33 -4 58 -15 20 -28 26 -61 27 l-41 1
40 -4z"/>
<path d="M2293 1400 c-46 -27 -41 -34 5 -8 46 27 48 28 36 28 -5 0 -24 -9 -41
-20z"/>
<path d="M1460 1380 c-19 -11 -30 -19 -25 -19 6 0 26 8 45 19 19 11 31 19 25
19 -5 0 -26 -8 -45 -19z"/>
<path d="M1272 1345 c-17 -37 -14 -45 4 -12 9 16 14 31 11 33 -2 2 -9 -7 -15
-21z"/>
<path d="M2214 1338 c-74 -82 -87 -98 -82 -98 3 0 31 29 63 65 58 66 73 92 19
33z"/>
<path d="M1320 1315 c-25 -13 -40 -24 -35 -24 6 0 30 11 55 24 25 13 41 24 35
24 -5 0 -30 -11 -55 -24z"/>
<path d="M1247 1286 c-4 -10 -1 -13 8 -9 8 3 12 9 9 14 -7 12 -11 11 -17 -5z"/>
<path d="M1565 1269 c-27 -16 -46 -29 -42 -29 13 0 85 39 92 50 8 13 10 13
-50 -21z"/>
<path d="M1450 1215 c-14 -8 -20 -14 -15 -14 6 0 21 6 35 14 14 8 21 14 15 14
-5 0 -21 -6 -35 -14z"/>
<path d="M2120 1224 c0 -17 -118 -104 -184 -135 -37 -17 -90 -33 -119 -36 -28
-2 -54 -7 -57 -10 -3 -3 10 -3 28 -1 18 3 36 0 41 -6 5 -6 39 -78 75 -161 l65
-150 185 -3 c102 -1 186 0 186 3 0 7 -210 498 -215 504 -3 2 -5 0 -5 -5z"/>
<path d="M1330 1160 c-30 -16 -50 -29 -45 -29 6 0 35 13 65 29 30 16 51 29 45
29 -5 0 -35 -13 -65 -29z"/>
<path d="M1240 1120 c-8 -5 -10 -10 -5 -10 6 0 17 5 25 10 8 5 11 10 5 10 -5
0 -17 -5 -25 -10z"/>
<path d="M1148 1063 c-26 -28 -58 -85 -58 -100 1 -4 10 10 22 32 11 22 32 52
46 68 14 15 23 27 21 27 -3 0 -17 -12 -31 -27z"/>
<path d="M1703 1033 c9 -2 23 -2 30 0 6 3 -1 5 -18 5 -16 0 -22 -2 -12 -5z"/>
<path d="M1643 1023 c9 -2 23 -2 30 0 6 3 -1 5 -18 5 -16 0 -22 -2 -12 -5z"/>
<path d="M1588 1013 c6 -2 18 -2 25 0 6 3 1 5 -13 5 -14 0 -19 -2 -12 -5z"/>
<path d="M1538 1003 c7 -3 16 -2 19 1 4 3 -2 6 -13 5 -11 0 -14 -3 -6 -6z"/>
<path d="M1436 980 c-27 -11 -54 -25 -60 -31 -7 -7 -2 -7 14 2 14 7 50 21 80
30 30 10 46 18 35 18 -11 0 -42 -9 -69 -19z"/>
<path d="M1330 921 c-13 -11 -29 -17 -35 -14 -5 4 -7 2 -2 -2 4 -5 -14 -31
-40 -59 -39 -41 -35 -38 22 14 39 35 74 67 80 72 18 16 -1 7 -25 -11z"/>
<path d="M1051 879 c-12 -29 -20 -54 -18 -56 2 -2 14 20 26 48 12 29 20 54 18
56 -2 2 -14 -20 -26 -48z"/>
<path d="M1170 779 c-22 -18 -22 -19 -3 -10 12 6 25 16 28 21 9 15 3 12 -25
-11z"/>
<path d="M1006 775 c-9 -26 -7 -32 5 -12 6 10 9 21 6 23 -2 3 -7 -2 -11 -11z"/>
<path d="M1110 750 c-8 -5 -10 -10 -5 -10 6 0 17 5 25 10 8 5 11 10 5 10 -5 0
-17 -5 -25 -10z"/>
<path d="M990 728 c0 -4 14 -8 30 -8 17 0 30 2 30 4 0 2 -13 6 -30 8 -16 3
-30 1 -30 -4z"/>
<path d="M1068 733 c7 -3 16 -2 19 1 4 3 -2 6 -13 5 -11 0 -14 -3 -6 -6z"/>
</g>
</svg>
